<svg  xmlns="http://www.w3.org/2000/svg" >
  <symbol viewBox="0 0 68 68" id="battery-large">
    <path d="M46.536 8H40V4H28V8H21.464C19.554 8 18 9.554 18 11.464V60.536C18 62.446 19.554 64 21.464 64H46.536C48.446 64 50 62.446 50 60.536V11.464C50 9.554 48.446 8 46.536 8ZM20 23H48V35H20V23ZM20 37H48V49H20V37ZM30 6H38V8H30V6ZM21.464 10H28H40H46.536C47.344 10 48 10.656 48 11.464V21H20V11.464C20 10.656 20.656 10 21.464 10ZM46.536 62H21.464C20.656 62 20 61.344 20 60.536V51H48V60.536C48 61.344 47.344 62 46.536 62Z"/>
    </symbol>
  <symbol viewBox="0 0 68 68" id="timer">
    <path d="M35.634 41.989C36.675 41.908 37.624 41.377 38.24 40.53L47.603 27.586C47.89 27.189 47.847 26.641 47.499 26.293C47.151 25.946 46.603 25.903 46.206 26.189L33.26 35.555C32.416 36.169 31.885 37.118 31.804 38.159C31.723 39.2 32.1 40.219 32.837 40.956C33.508 41.628 34.413 42 35.354 42C35.447 42 35.54 41.996 35.634 41.989ZM33.798 38.315C33.833 37.858 34.067 37.441 34.435 37.173L42.332 31.46L36.621 39.355C36.351 39.726 35.934 39.959 35.477 39.995C35.022 40.025 34.575 39.867 34.25 39.542C33.928 39.219 33.762 38.771 33.798 38.315Z" />
    <path d="M58.034 23.564C58.024 23.543 58.024 23.521 58.013 23.5C58.001 23.48 57.982 23.469 57.969 23.45C56.958 21.716 55.762 20.103 54.404 18.641L56.552 16.494L57.966 17.908L62.208 13.665L57.966 9.423L53.723 13.665L55.138 15.08L52.99 17.227C51.528 15.869 49.916 14.672 48.181 13.661C48.162 13.648 48.151 13.629 48.131 13.617C48.11 13.605 48.088 13.606 48.067 13.595C44.974 11.813 41.499 10.626 37.794 10.191V9H39.294C40.673 9 41.794 7.879 41.794 6.5C41.794 5.121 40.672 4 39.293 4H30.293C28.914 4 27.793 5.121 27.793 6.5C27.793 7.879 28.914 9 30.293 9H31.793V10.156C30.713 10.271 29.635 10.447 28.569 10.691C28.031 10.814 27.694 11.351 27.818 11.889C27.941 12.427 28.478 12.765 29.016 12.64C29.936 12.429 30.865 12.27 31.796 12.163L32.869 12.08C33.197 12.055 33.499 12.037 33.793 12.023V14C33.793 14.553 34.24 15 34.793 15C35.346 15 35.793 14.553 35.793 14V12.03C39.554 12.203 43.098 13.213 46.249 14.875L45.263 16.582C44.987 17.061 45.151 17.672 45.629 17.948C45.786 18.039 45.958 18.082 46.128 18.082C46.474 18.082 46.81 17.903 46.995 17.582L47.978 15.879C51.107 17.864 53.765 20.522 55.75 23.651L54.047 24.634C53.57 24.91 53.406 25.521 53.683 26C53.869 26.321 54.204 26.5 54.55 26.5C54.72 26.5 54.892 26.457 55.049 26.366L56.756 25.38C58.441 28.576 59.454 32.178 59.605 35.999H57.63C57.077 35.999 56.63 36.446 56.63 36.999C56.63 37.552 57.077 37.999 57.63 37.999H59.605C59.454 41.82 58.441 45.422 56.756 48.618L55.049 47.632C54.571 47.356 53.959 47.518 53.683 47.998C53.407 48.477 53.571 49.088 54.049 49.364L55.752 50.347C53.767 53.476 51.109 56.134 47.98 58.119L46.997 56.416C46.72 55.936 46.107 55.773 45.631 56.05C45.152 56.326 44.988 56.938 45.265 57.416L46.251 59.123C43.1 60.785 39.556 61.795 35.795 61.968V60C35.795 59.447 35.348 59 34.795 59C34.242 59 33.795 59.447 33.795 60V61.976C32.198 61.921 30.596 61.721 29.019 61.359C28.481 61.23 27.944 61.572 27.821 62.11C27.697 62.648 28.034 63.185 28.572 63.308C30.568 63.768 32.607 64 34.63 64C34.679 64 34.726 63.997 34.775 63.996C34.782 63.996 34.787 64 34.793 64C34.801 64 34.808 63.995 34.816 63.995C39.623 63.962 44.133 62.664 48.035 60.422C48.066 60.408 48.099 60.401 48.129 60.383C48.149 60.371 48.16 60.352 48.179 60.339C52.218 57.985 55.593 54.614 57.952 50.578C57.971 50.551 57.995 50.53 58.012 50.5C58.024 50.479 58.023 50.457 58.033 50.436C60.317 46.476 61.63 41.89 61.63 37C61.63 32.11 60.317 27.524 58.034 23.564ZM57.965 12.251L59.379 13.665L57.965 15.08L56.55 13.665L57.965 12.251ZM33.793 10.021V7H30.293C30.018 7 29.793 6.775 29.793 6.5C29.793 6.225 30.018 6 30.293 6H39.293C39.568 6 39.793 6.225 39.793 6.5C39.793 6.775 39.568 7 39.293 7H35.793V10.021C35.445 10.007 35.113 10 34.793 10C34.765 10 34.733 10.002 34.705 10.002C34.68 10.002 34.655 10 34.63 10C34.466 10 34.302 10.011 34.138 10.014C34.022 10.017 33.913 10.016 33.793 10.021Z" />
    <path d="M25.793 18H20.793C20.24 18 19.793 18.447 19.793 19C19.793 19.553 20.24 20 20.793 20H25.793C26.346 20 26.793 19.553 26.793 19C26.793 18.447 26.346 18 25.793 18Z" />
    <path d="M25.793 25H15.793C15.24 25 14.793 25.447 14.793 26C14.793 26.553 15.24 27 15.793 27H25.793C26.346 27 26.793 26.553 26.793 26C26.793 25.447 26.346 25 25.793 25Z" />
    <path d="M25.793 32H10.793C10.24 32 9.793 32.447 9.793 33C9.793 33.553 10.24 34 10.793 34H25.793C26.346 34 26.793 33.553 26.793 33C26.793 32.447 26.346 32 25.793 32Z" />
    <path d="M25.793 39H6.793C6.24 39 5.793 39.447 5.793 40C5.793 40.553 6.24 41 6.793 41H25.793C26.346 41 26.793 40.553 26.793 40C26.793 39.447 26.346 39 25.793 39Z" />
    <path d="M25.793 46H12.793C12.24 46 11.793 46.447 11.793 47C11.793 47.553 12.24 48 12.793 48H25.793C26.346 48 26.793 47.553 26.793 47C26.793 46.447 26.346 46 25.793 46Z" />
    <path d="M25.793 53H18.793C18.24 53 17.793 53.447 17.793 54C17.793 54.553 18.24 55 18.793 55H25.793C26.346 55 26.793 54.553 26.793 54C26.793 53.447 26.346 53 25.793 53Z" />
  </symbol>

  <symbol viewBox="0 0 68 68" id="dynamic">
    <g clip-path="url(#clip0)">
    <path d="M36.404 11.413C35.428 10.861 34.273 10.879 33.314 11.457C33.268 11.484 33.224 11.516 33.184 11.55L19.634 23.013H9C8.447 23.013 8 23.46 8 24.013V43.013C8 43.279 8.105 43.533 8.293 43.72C8.481 43.907 8.734 44.013 9 44.013L19.61 44.008L33.153 56.448C33.203 56.494 33.257 56.534 33.314 56.568C33.806 56.865 34.351 57.014 34.896 57.014C35.413 57.013 35.929 56.88 36.404 56.612C37.403 56.048 38 55.018 38 53.857V14.169C38 13.008 37.403 11.978 36.404 11.413ZM36 53.857C36 54.288 35.783 54.667 35.421 54.872C35.266 54.959 34.873 55.127 34.421 54.898L21 42.569V38.013C21 37.46 20.553 37.013 20 37.013C19.447 37.013 19 37.46 19 38.013V42.009L10 42.013V25.013H19V29.013C19 29.566 19.447 30.013 20 30.013C20.553 30.013 21 29.566 21 29.013V24.477L34.405 13.137C34.866 12.895 35.265 13.067 35.421 13.155C35.783 13.36 36 13.739 36 14.169V53.857Z" />
    <path d="M46.797 15.066C46.274 14.889 45.706 15.169 45.528 15.692C45.351 16.214 45.631 16.783 46.154 16.961C53.255 19.372 58.026 26.024 58.026 33.514C58.026 40.997 53.264 47.65 46.177 50.068C45.655 50.246 45.375 50.814 45.554 51.338C45.696 51.753 46.084 52.015 46.5 52.015C46.607 52.015 46.716 51.998 46.823 51.961C54.719 49.268 60.025 41.855 60.025 33.515C60.026 25.166 54.71 17.753 46.797 15.066Z" />
    <path d="M51.026 33.513C51.026 27.541 47.017 22.211 41.277 20.551C40.744 20.4 40.193 20.703 40.039 21.235C39.886 21.765 40.191 22.32 40.723 22.473C45.612 23.886 49.027 28.426 49.027 33.513C49.027 38.6 45.612 43.14 40.723 44.553C40.192 44.706 39.886 45.261 40.039 45.791C40.166 46.229 40.565 46.514 41 46.514C41.092 46.514 41.185 46.501 41.277 46.475C47.018 44.815 51.026 39.485 51.026 33.513Z" />
    </g>
    <defs>
    <clipPath id="clip0">
    <rect width="52.026" height="52.026"  transform="translate(8 8)"/>
    </clipPath>
    </defs>
  </symbol>

  <symbol viewBox="0 0 52 52" id="battery" >
    <path d="M34.2832 5.99995H17.7168C15.8879 5.99995 14.4001 7.48777 14.4001 9.31671V46.6831C14.4001 48.5121 15.8879 49.9999 17.7168 49.9999H34.2833C36.1122 49.9999 37.6 48.5121 37.6 46.6831V9.31683C37.6 7.48777 36.1122 5.99995 34.2832 5.99995ZM36 46.6832C36 47.6296 35.2296 48.4 34.2832 48.4H17.7168C16.7704 48.4 16 47.6296 16 46.6832V9.31683C16 8.37042 16.7704 7.60003 17.7168 7.60003H34.2833C35.2297 7.60003 36.0001 8.37042 36.0001 9.31683V46.6832H36Z" />
    <path d="M30.4 2H21.6001C21.1583 2 20.8 2.35824 20.8 2.80004V6.8C20.8 7.2418 21.1583 7.60004 21.6001 7.60004H30.4C30.8418 7.60004 31.2001 7.2418 31.2001 6.8V2.80004C31.2 2.35824 30.8418 2 30.4 2ZM29.6 5.99996H22.4V3.59996H29.6V5.99996Z" />
    <path d="M31.8746 23.9702C31.7278 23.7392 31.4734 23.5998 31.2 23.5998H26.4V16.3998C26.4 16.0248 26.1393 15.7002 25.7734 15.619C25.404 15.5381 25.0336 15.7217 24.875 16.0616L19.275 28.0616C19.1594 28.3092 19.1785 28.5992 19.3254 28.8296C19.4722 29.0606 19.7266 29.2 20 29.2H24.8V36.4C24.8 36.775 25.0606 37.0996 25.4266 37.1808C25.4848 37.1939 25.543 37.2001 25.6004 37.2001C25.9058 37.2001 26.1914 37.0243 26.325 36.7382L31.925 24.7382C32.0406 24.4906 32.0215 24.2006 31.8746 23.9702ZM24.8 27.6H21.2563L24.8 20.0057V27.6ZM26.4 32.7942V25.2H29.9437L26.4 32.7942Z" />
  </symbol>

  <symbol viewBox="0 0 52 52" id="plug" >
    <path d="M38.8 12.4H36.4V4.4C36.4 3.03997 35.36 2 34 2C32.6399 2 31.6 3.03997 31.6 4.4V12.4H20.4V4.4C20.4 3.03997 19.3601 2 18 2C16.64 2 15.6 3.03997 15.6 4.4V12.4H13.2C12.72 12.4 12.4001 12.7199 12.4001 13.1999V19.2799C12.4001 23.2799 13.92 27.1199 16.6401 30.0799C19.0401 32.7999 20.4001 36.3199 20.4001 39.9199V41.9999C20.4001 44.2399 22.1601 46 24.4002 46H25.2001V49.1999C25.2001 49.6799 25.5201 49.9999 26.0001 49.9999C26.4801 49.9999 26.8001 49.6799 26.8001 49.1999V46H27.6C29.84 46 31.6001 44.24 31.6001 41.9999V40C31.6001 36.32 32.88 32.8799 35.3601 30.16C38.0801 27.2 39.6001 23.2799 39.6001 19.28V13.2C39.6 12.72 39.28 12.4 38.8 12.4ZM33.2 4.4C33.2 3.92 33.52 3.60003 34 3.60003C34.48 3.60003 34.7999 3.92 34.7999 4.4V12.4H33.2V4.4ZM17.2 4.4C17.2 3.99997 17.5199 3.60003 17.9999 3.60003C18.4799 3.60003 18.7999 3.92 18.7999 4.4V12.4H17.1999V4.4H17.2ZM38 19.2C38 22.88 36.72 26.3201 34.24 29.04C31.52 32 30 35.92 30 39.92V42C30 43.3601 28.9601 44.4 27.6 44.4H24.4001C23.04 44.4 22.0001 43.3601 22.0001 42V40.0001C22.0001 36 20.4801 32.0801 17.76 29.1201C15.36 26.4 14 22.88 14 19.28V14H16.4H19.6H32.3999H35.6H38V19.2Z" />
    <path d="M29.2 22.8H24.7199L28.96 18.56C29.2799 18.24 29.2799 17.76 28.96 17.44C28.64 17.1199 28.16 17.12 27.8399 17.44L22.24 23.0399C22 23.2799 21.92 23.5999 22.0799 23.92C22.1599 24.2399 22.48 24.4 22.7999 24.4H27.28L23.0399 28.64C22.72 28.96 22.72 29.44 23.0399 29.76C23.2 29.9201 23.3599 30 23.5999 30C23.8399 30 23.9999 29.9201 24.1599 29.76L29.7599 24.1601C29.9999 23.9201 30.0798 23.6001 29.9199 23.28C29.84 22.96 29.52 22.8 29.2 22.8Z" />
  </symbol>

  <symbol viewBox="0 0 52 52" id="ear" >
    <g clip-path="url(#clip0)">
    <path d="M15.9708 1C7.71605 1 1 8.27579 1 17.2591C1.03177 19.342 1.60287 21.3811 2.6576 23.1775C3.15599 24.0277 3.58274 24.918 3.93344 25.839C4.16602 26.5159 3.94278 27.2658 3.37786 27.7053C2.39499 28.4911 1.82544 29.6832 1.83171 30.9415C1.82776 32.3243 2.51136 33.6185 3.65565 34.3948C4.06703 34.6743 4.31726 35.1359 4.32684 35.6332V42.5854C4.32684 47.1715 7.68444 50.9025 11.8122 50.9025C15.94 50.9025 19.2976 47.1715 19.2976 42.5854C19.285 39.1601 20.7745 35.9014 23.373 33.6695C28.2442 29.6051 31.0244 23.5619 30.9415 17.2183C30.9415 8.27579 24.2255 1 15.9708 1ZM22.2917 32.4062C19.3233 34.9534 17.621 38.674 17.6342 42.5854C17.6342 46.2541 15.0218 49.2391 11.8122 49.2391C8.60265 49.2391 5.99025 46.2541 5.99025 42.5854V35.6332C5.97678 34.6031 5.47131 33.6417 4.63041 33.0466C3.91983 32.5825 3.49254 31.7902 3.49513 30.9415C3.48942 30.1765 3.83983 29.4523 4.44327 28.982C5.55062 28.0949 5.97343 26.603 5.49622 25.2668C5.11317 24.2593 4.64662 23.2856 4.10144 22.3558C3.18489 20.7969 2.68934 19.0265 2.66342 17.2183C2.66342 9.19316 8.63342 2.66342 15.9708 2.66342C23.3081 2.66342 29.2781 9.19316 29.2781 17.2183C29.3542 23.0745 26.788 28.6533 22.2917 32.4062Z" />
    <path d="M15.9707 5.15854C11.3356 5.15854 7.38335 8.44545 5.84885 13.0398C5.83803 13.0673 5.83055 13.0939 5.82223 13.123C5.38372 14.4571 5.15915 15.8522 5.15686 17.2566C5.15686 18.2546 5.15686 21.307 7.06397 23.2141C7.39032 23.5293 7.90906 23.5248 8.22988 23.204C8.5507 22.8832 8.5552 22.3644 8.24001 22.0381C7.55671 21.2785 7.11793 20.3308 6.9808 19.3184C7.11471 19.3101 7.24695 19.2993 7.38584 19.2993C11.2034 19.2976 14.3073 22.7908 14.3073 27.0824C14.3073 27.4808 14.2882 27.855 14.2574 28.2243C13.8433 28.6664 13.4028 29.0831 12.9383 29.4719C10.5159 31.4557 9.17332 34.4674 9.31707 37.5952C9.31707 38.0545 9.68944 38.4269 10.1488 38.4269C10.6081 38.4269 10.9805 38.0545 10.9805 37.5952C10.8374 34.958 11.9646 32.4116 14.0129 30.7444C16.9473 28.4922 18.6072 24.9568 18.4659 21.2604C18.4659 16.0539 14.5485 11.8122 9.73293 11.8122C9.17973 11.8137 8.62816 11.8722 8.08697 11.9869C9.53264 8.91802 12.5799 6.92167 15.9707 6.82196C21.0151 6.82196 25.1195 11.502 25.1195 17.2549C25.1849 21.787 23.2194 26.1106 19.7617 29.0411C19.6469 29.14 19.5196 29.2465 19.3816 29.3621C17.7265 30.7377 14.284 33.6038 13.4806 40.8305C13.432 41.2859 13.7607 41.6949 14.2158 41.7454C14.2462 41.7498 14.2767 41.7526 14.3073 41.7537C14.731 41.7533 15.0866 41.4346 15.1332 41.0135C15.8626 34.4513 18.8426 31.972 20.4445 30.6404C20.5917 30.5173 20.7273 30.4042 20.8487 30.2994C24.6768 27.0566 26.8537 22.2714 26.783 17.2549C26.783 10.5846 21.9324 5.15854 15.9707 5.15854ZM9.73293 13.4756C13.6311 13.4756 16.8025 16.9688 16.8025 21.2604C16.8402 22.8342 16.5277 24.3966 15.8876 25.8348C15.3295 21.2105 11.7349 17.6342 7.38751 17.6342C7.19538 17.6342 7.01074 17.6483 6.82527 17.6616C6.82527 17.5019 6.82527 17.363 6.82527 17.2549C6.82557 16.1427 6.98465 15.0361 7.29768 13.9688C8.0689 13.6452 8.89657 13.4776 9.73293 13.4756Z" />
    <path d="M42.5854 20.1293C42.6492 17.508 43.7609 15.0216 45.6719 13.2261C45.904 13.02 46.002 12.7017 45.926 12.4007C45.8501 12.0997 45.6128 11.8661 45.3106 11.7948C45.0084 11.7235 44.6917 11.8264 44.4892 12.0617C42.268 14.1648 40.983 17.071 40.922 20.1293C40.983 23.1876 42.268 26.0937 44.4892 28.1969C44.6917 28.4322 45.0084 28.5351 45.3106 28.4638C45.6128 28.3925 45.8501 28.1589 45.926 27.8579C46.002 27.5569 45.904 27.2386 45.6719 27.0325C43.7609 25.237 42.6492 22.7506 42.5854 20.1293Z" />
    <path d="M48.1288 15.3495C47.964 15.2028 47.7477 15.1275 47.5275 15.1403C47.3072 15.1531 47.1011 15.2529 46.9544 15.4177C44.4561 18.062 44.4561 22.1966 46.9544 24.8409C47.152 25.0629 47.453 25.1626 47.744 25.1024C48.0351 25.0423 48.2719 24.8315 48.3653 24.5494C48.4587 24.2673 48.3946 23.9567 48.197 23.7348C46.2597 21.7215 46.2597 18.5371 48.197 16.5239C48.3437 16.3591 48.4189 16.1428 48.4061 15.9225C48.3933 15.7023 48.2936 15.4962 48.1288 15.3495Z" />
    <path d="M50.6887 17.9095C50.3814 17.5683 49.8557 17.5407 49.5144 17.8479C48.8154 18.3986 48.4074 19.2394 48.4074 20.1293C48.4074 21.0192 48.8154 21.86 49.5144 22.4107C49.7341 22.6165 50.0479 22.6875 50.3348 22.5964C50.6217 22.5052 50.837 22.2662 50.8976 21.9713C50.9583 21.6764 50.8548 21.3717 50.6272 21.1748C50.3047 20.9185 50.1032 20.5399 50.0708 20.1293C50.1032 19.7187 50.3047 19.3401 50.6272 19.0838C50.9684 18.7765 50.9959 18.2508 50.6887 17.9095Z" />
    <path d="M38.4269 20.1293C38.4269 16.4698 40.0662 12.9334 43.1676 9.91259C43.3804 9.70459 43.466 9.39889 43.3923 9.11064C43.3185 8.82239 43.0966 8.59539 42.8101 8.51514C42.5236 8.43489 42.216 8.51358 42.0032 8.72158C38.5766 12.0617 36.7635 16.0065 36.7635 20.1293C36.7635 24.2521 38.5766 28.1969 42.0032 31.537C42.3321 31.8586 42.8594 31.8526 43.1809 31.5237C43.5025 31.1948 43.4965 30.6676 43.1676 30.346C40.0662 27.3253 38.4269 23.7888 38.4269 20.1293Z" />
    <path d="M34.2684 20.1293C34.2684 15.5599 36.1996 11.1585 39.855 7.40416C40.063 7.19111 40.1415 6.88328 40.061 6.59662C39.9805 6.30997 39.7532 6.08804 39.4647 6.01443C39.1762 5.94082 38.8703 6.02672 38.6623 6.23977C34.7 10.3151 32.6049 15.1183 32.6049 20.1293C32.6049 25.1403 34.7 29.9435 38.6623 34.0188C38.9839 34.3482 39.5115 34.3545 39.8408 34.033C40.1702 33.7114 40.1765 33.1838 39.855 32.8544C36.1996 29.1001 34.2684 24.6987 34.2684 20.1293Z" />
    </g>
    <defs>
    <clipPath id="clip0">
    <rect width="50" height="49.9025"  transform="translate(1 1)"/>
    </clipPath>
    </defs>
  </symbol>

  <symbol viewBox="0 0 24 24" id="phone" >
    <path d="M23.9481 18.5956C23.8802 18.3911 23.4483 18.0898 22.6528 17.6924C22.4372 17.5671 22.1301 17.3969 21.7328 17.181C21.335 16.965 20.974 16.7661 20.6504 16.5842C20.3261 16.4024 20.0222 16.2263 19.7384 16.0561C19.693 16.022 19.551 15.9227 19.3123 15.7576C19.0735 15.5929 18.872 15.4707 18.707 15.391C18.5422 15.3118 18.3802 15.2719 18.2211 15.2719C17.9939 15.2719 17.7101 15.4339 17.3693 15.7576C17.0285 16.0816 16.7159 16.4336 16.432 16.8147C16.148 17.1955 15.8468 17.5475 15.5289 17.8714C15.2106 18.1954 14.949 18.3572 14.7447 18.3572C14.6422 18.3572 14.5143 18.3286 14.361 18.2722C14.2078 18.2154 14.0913 18.1668 14.0113 18.1276C13.932 18.0875 13.7959 18.0082 13.6026 17.8885C13.409 17.7692 13.3013 17.7038 13.2786 17.6924C11.7218 16.8286 10.3867 15.8399 9.273 14.7266C8.15962 13.6127 7.17084 12.2777 6.30725 10.7208C6.29591 10.6981 6.23042 10.5901 6.11119 10.397C5.99179 10.2038 5.91221 10.0676 5.87245 9.98781C5.83268 9.90835 5.78439 9.79181 5.72767 9.63844C5.67095 9.48506 5.64248 9.3573 5.64248 9.25491C5.64248 9.05049 5.80445 8.789 6.12833 8.47079C6.45215 8.15276 6.80451 7.8515 7.18505 7.56762C7.56589 7.28374 7.91789 6.97114 8.24183 6.63036C8.56565 6.2894 8.72756 6.00546 8.72756 5.77824C8.72756 5.61925 8.6878 5.45716 8.60834 5.29244C8.52882 5.12737 8.40667 4.92594 8.24183 4.68719C8.07693 4.44856 7.97753 4.30665 7.94338 4.26098C7.77311 3.97709 7.59717 3.67315 7.41514 3.34927C7.23311 3.02545 7.03442 2.66449 6.81842 2.26682C6.6026 1.86932 6.43227 1.5624 6.30713 1.34651C5.90964 0.551227 5.60856 0.119224 5.40397 0.0512838C5.32438 0.0171941 5.20498 0 5.04605 0C4.73907 0 4.33859 0.0567167 3.84432 0.170508C3.34987 0.284121 2.96079 0.403286 2.67667 0.52848C2.10849 0.766989 1.50628 1.46013 0.869857 2.60766C0.290332 3.6756 0.000598907 4.73262 0.000598907 5.77794C0.000598907 6.08451 0.0204796 6.38278 0.060241 6.67281C0.100002 6.96254 0.171047 7.28929 0.273436 7.65299C0.375645 8.01658 0.458093 8.28667 0.520422 8.46255C0.58281 8.63855 0.699289 8.95384 0.869797 9.40852C1.04007 9.86309 1.14245 10.1414 1.17654 10.2436C1.57422 11.3573 2.0458 12.3515 2.59118 13.2266C3.4885 14.681 4.71304 16.1841 6.26409 17.7353C7.8152 19.2864 9.31802 20.5108 10.7726 21.4085C11.6475 21.9538 12.6421 22.4254 13.7556 22.8233C13.8579 22.8573 14.1362 22.9594 14.5906 23.1303C15.0451 23.3007 15.3605 23.4171 15.5365 23.4796C15.7126 23.5422 15.9828 23.6247 16.346 23.7271C16.7101 23.8295 17.0366 23.9005 17.3263 23.9406C17.6162 23.9798 17.9145 24.0001 18.2212 24.0001C19.2664 24.0001 20.3235 23.7101 21.3916 23.1307C22.539 22.4945 23.232 21.8922 23.4706 21.3236C23.5961 21.0397 23.715 20.6506 23.8286 20.1561C23.9426 19.6619 23.9992 19.2615 23.9992 18.9545C23.9995 18.795 23.9824 18.6759 23.9481 18.5956Z"/>
  </symbol>

  <symbol viewBox="0 0 24 24" id="fb">
    <path d="M24 12C24 5.37188 18.6281 0 12 0C5.37188 0 0 5.37188 0 12C0 18.6281 5.37188 24 12 24C12.0703 24 12.1406 24 12.2109 23.9953V14.6578H9.63281V11.6531H12.2109V9.44062C12.2109 6.87656 13.7766 5.47969 16.0641 5.47969C17.1609 5.47969 18.1031 5.55938 18.375 5.59688V8.27813H16.8C15.5578 8.27813 15.3141 8.86875 15.3141 9.73594V11.6484H18.2906L17.9016 14.6531H15.3141V23.5359C20.3297 22.0969 24 17.4797 24 12Z" />
  </symbol>

  <symbol viewBox="0 0 24 24" id="vk">
    <path d="M12 0C5.37423 0 0 5.37423 0 12C0 18.6258 5.37423 24 12 24C18.6258 24 24 18.6258 24 12C24 5.37423 18.6258 0 12 0ZM18.0859 13.3006C18.6503 13.8405 19.2393 14.3558 19.7301 14.9693C19.9509 15.2393 20.1718 15.5092 20.319 15.8282C20.5399 16.2699 20.3436 16.7607 19.9509 16.7853H17.4969C16.8589 16.8344 16.3681 16.589 15.9264 16.1472C15.5828 15.8037 15.2638 15.4356 14.9448 15.0675C14.8221 14.9202 14.6748 14.773 14.5031 14.6748C14.1595 14.454 13.865 14.5276 13.6933 14.8712C13.4969 15.2393 13.4479 15.6319 13.4233 16.0245C13.3988 16.6135 13.227 16.7607 12.638 16.7853C11.3865 16.8344 10.2086 16.6626 9.12883 16.0245C8.17178 15.4601 7.41104 14.6994 6.77301 13.816C5.49693 12.0982 4.53988 10.2086 3.65644 8.26994C3.46012 7.82822 3.60736 7.60736 4.09816 7.58282C4.90798 7.55828 5.69325 7.55828 6.50307 7.58282C6.82209 7.58282 7.04294 7.77914 7.16564 8.07362C7.60736 9.12883 8.1227 10.1595 8.78528 11.092C8.95705 11.3374 9.15337 11.5828 9.39877 11.7791C9.69325 11.9755 9.88957 11.9018 10.0368 11.5828C10.1104 11.3865 10.1595 11.1656 10.184 10.9448C10.2577 10.2086 10.2577 9.47239 10.135 8.7362C10.0613 8.2454 9.81595 7.95092 9.34969 7.85276C9.10429 7.80368 9.15337 7.73006 9.25153 7.58282C9.44785 7.36196 9.64417 7.21472 10.0123 7.21472H12.7853C13.227 7.31288 13.3252 7.48466 13.3742 7.92638V11.0184C13.3742 11.1902 13.4479 11.7055 13.7669 11.8037C14.0123 11.8773 14.184 11.681 14.3313 11.5337C14.9939 10.8221 15.4601 9.98773 15.9018 9.12883C16.0982 8.7362 16.2454 8.34356 16.4172 7.95092C16.5399 7.65644 16.7117 7.5092 17.0552 7.5092H19.7301C19.8037 7.5092 19.8773 7.5092 19.9755 7.53374C20.4172 7.60736 20.5399 7.80368 20.4172 8.2454C20.1963 8.93251 19.7791 9.52147 19.362 10.0859C18.9202 10.6994 18.4294 11.2883 17.9877 11.9264C17.546 12.5153 17.5706 12.8098 18.0859 13.3006Z" />
  </symbol>

  <symbol viewBox="0 0 24 24" id="tg">
    <path d="M12 24C18.6281 24 24 18.6281 24 12C24 5.37188 18.6281 0 12 0C5.37188 0 0 5.37188 0 12C0 18.6281 5.37188 24 12 24ZM5.48906 11.7422L17.0625 7.27969C17.6016 7.0875 18.0703 7.41094 17.8922 8.22187L15.9234 17.5031C15.7781 18.1594 15.3844 18.3234 14.8406 18.0094L11.8406 15.7969L10.3922 17.1891C10.2328 17.3484 10.0969 17.4844 9.7875 17.4844L9.99844 14.4328L15.5625 9.4125C15.8062 9.20156 15.5063 9.07969 15.1875 9.29062L8.31562 13.6172L5.35312 12.6937C4.71094 12.4875 4.69688 12.0516 5.48906 11.7422Z"/>
  </symbol>

  <symbol viewBox="0 0 24 24" id="inst">
    <path d="M14.2969 12C14.2969 13.2703 13.2703 14.2969 12 14.2969C10.7297 14.2969 9.70312 13.2703 9.70312 12C9.70312 10.7297 10.7297 9.70312 12 9.70312C13.2703 9.70312 14.2969 10.7297 14.2969 12Z" />
    <path d="M17.3719 7.93574C17.2594 7.63574 17.0859 7.36387 16.8562 7.14355C16.6359 6.91387 16.3641 6.74043 16.0641 6.62793C15.8203 6.53418 15.4547 6.42168 14.7844 6.38887C14.0578 6.35606 13.8375 6.34668 12 6.34668C10.1578 6.34668 9.94218 6.35137 9.21561 6.38887C8.5453 6.42168 8.17968 6.53418 7.93593 6.62793C7.63593 6.74043 7.36405 6.91387 7.14374 7.14355C6.91405 7.36387 6.74061 7.63574 6.62811 7.93574C6.53436 8.17949 6.42186 8.54512 6.38905 9.21543C6.35624 9.94199 6.34686 10.1576 6.34686 11.9998C6.34686 13.8373 6.35624 14.0576 6.38905 14.7842C6.42186 15.4545 6.52968 15.8201 6.62811 16.0639C6.74061 16.3639 6.91405 16.6357 7.14374 16.8561C7.36405 17.0857 7.63593 17.2592 7.93593 17.3717C8.17968 17.4654 8.5453 17.5779 9.21561 17.6107C9.94218 17.6436 10.1578 17.6529 12 17.6529C13.8422 17.6529 14.0578 17.6482 14.7844 17.6107C15.4547 17.5779 15.8203 17.4701 16.0641 17.3717C16.6641 17.142 17.1422 16.6639 17.3719 16.0639C17.4656 15.8201 17.5781 15.4545 17.6109 14.7842C17.6437 14.0576 17.6531 13.8373 17.6531 11.9998C17.6531 10.1576 17.6484 9.94199 17.6109 9.21543C17.5781 8.54512 17.4656 8.17949 17.3719 7.93574ZM12 15.5389C10.0453 15.5389 8.46093 13.9545 8.46093 11.9998C8.46093 10.0451 10.0453 8.46074 12 8.46074C13.9547 8.46074 15.5391 10.0451 15.5391 11.9998C15.5391 13.9545 13.9547 15.5389 12 15.5389ZM15.6797 9.1498C15.225 9.1498 14.8547 8.77949 14.8547 8.32481C14.8547 7.87012 15.225 7.4998 15.6797 7.4998C16.1344 7.4998 16.5047 7.87012 16.5047 8.32481C16.5047 8.77949 16.1344 9.1498 15.6797 9.1498Z" />
    <path d="M12 0C5.37188 0 0 5.37188 0 12C0 18.6281 5.37188 24 12 24C18.6281 24 24 18.6281 24 12C24 5.37188 18.6281 0 12 0ZM18.8484 14.8406C18.8156 15.5719 18.6984 16.0734 18.5297 16.5141C18.1734 17.4375 17.4422 18.1734 16.5141 18.5297C16.0781 18.6984 15.5766 18.8156 14.8406 18.8484C14.1047 18.8813 13.8703 18.8906 12 18.8906C10.1297 18.8906 9.89531 18.8813 9.15937 18.8484C8.42812 18.8156 7.92656 18.6984 7.48594 18.5297C7.02656 18.3562 6.60938 18.0844 6.26719 17.7328C5.91562 17.3906 5.64375 16.9734 5.47031 16.5141C5.30156 16.0781 5.18438 15.5766 5.15156 14.8406C5.11875 14.1047 5.10938 13.8703 5.10938 12C5.10938 10.1297 5.11875 9.89531 5.15156 9.15937C5.18438 8.42812 5.30156 7.92656 5.47031 7.48594C5.64375 7.02656 5.91562 6.60938 6.26719 6.26719C6.60938 5.91562 7.02656 5.64375 7.48594 5.47031C7.92656 5.30156 8.42344 5.18438 9.15937 5.15156C9.89531 5.11875 10.1297 5.10938 12 5.10938C13.8703 5.10938 14.1047 5.11875 14.8406 5.15156C15.5719 5.18438 16.0734 5.30156 16.5141 5.47031C16.9734 5.64375 17.3906 5.91562 17.7328 6.26719C18.0844 6.60938 18.3562 7.02656 18.5297 7.48594C18.6984 7.92656 18.8156 8.42344 18.8484 9.15937C18.8813 9.89531 18.8906 10.1297 18.8906 12C18.8906 13.8703 18.8813 14.1047 18.8484 14.8406Z"/>
  </symbol>


  <symbol viewBox="0 0 42 42" id="wheel">
    <g clip-path="url(#clip0)">
    <path d="M21 10.1111C14.9956 10.1111 10.1111 14.9955 10.1111 21C10.1111 27.0044 14.9956 31.8889 21 31.8889C27.0044 31.8889 31.8889 27.0044 31.8889 21C31.8889 14.9955 27.0044 10.1111 21 10.1111ZM21 30.3333C15.8534 30.3333 11.6667 26.1465 11.6667 21C11.6667 15.8534 15.8534 11.6666 21 11.6666C26.1466 11.6666 30.3333 15.8534 30.3333 21C30.3333 26.1465 26.1466 30.3333 21 30.3333Z" />
    <path d="M39.8378 16.3333H38.2682C37.8677 14.8462 37.2789 13.4229 36.5104 12.089L37.6196 10.9799C38.0279 10.5716 38.2527 10.0279 38.2527 9.45078C38.2527 8.87289 38.0279 8.33 37.6196 7.92089L34.0783 4.37967C33.2617 3.56378 31.8376 3.56222 31.0193 4.37967L29.9102 5.48878C28.5756 4.72111 27.153 4.13233 25.6667 3.73178V2.16222C25.6667 0.969889 24.6968 0 23.5044 0H18.4956C17.3032 0 16.3333 0.969889 16.3333 2.16222V3.73178C14.847 4.13233 13.4244 4.72111 12.089 5.48956L10.9799 4.38044C10.1624 3.56222 8.73755 3.56378 7.92089 4.38044L4.37967 7.92167C3.97133 8.33 3.74656 8.87367 3.74656 9.45156C3.74656 10.0287 3.97133 10.5716 4.37967 10.9807L5.48878 12.0898C4.72111 13.4229 4.13156 14.8462 3.73178 16.3333H2.16222C0.969889 16.3333 0 17.3032 0 18.4956V23.5037C0 24.6968 0.969889 25.6667 2.16222 25.6667H3.73178C4.13233 27.153 4.72111 28.5756 5.48956 29.911L4.38044 31.0201C3.97211 31.4284 3.74733 31.9721 3.74733 32.5492C3.74733 33.1271 3.97211 33.67 4.38044 34.0791L7.92167 37.6203C8.73833 38.4378 10.1632 38.4386 10.9807 37.6203L12.0898 36.5112C13.4252 37.2789 14.8478 37.8684 16.3341 38.269V39.8386C16.3341 41.0309 17.304 42.0008 18.4963 42.0008H23.5044C24.6968 42.0008 25.6667 41.0309 25.6667 39.8386V38.269C27.153 37.8684 28.5756 37.2797 29.911 36.5112L31.0201 37.6203C31.8383 38.4386 33.2617 38.437 34.0791 37.6203L37.6203 34.0791C38.0287 33.6708 38.2534 33.1271 38.2534 32.5492C38.2534 31.9721 38.0287 31.4292 37.6203 31.0201L36.5112 29.911C37.2789 28.5756 37.8684 27.153 38.269 25.6667H39.8386C41.0309 25.6667 42.0008 24.6968 42.0008 23.5044V18.4956C42 17.3032 41.0301 16.3333 39.8378 16.3333ZM40.4444 23.5044C40.4444 23.8389 40.1722 24.1111 39.8378 24.1111H37.044L36.904 24.7123C36.4988 26.4522 35.8159 28.1034 34.8717 29.6209L34.545 30.1451L36.5198 32.1199C36.757 32.3571 36.757 32.7421 36.5198 32.9786L32.9786 36.5198C32.7421 36.7562 32.3571 36.7578 32.1199 36.5198L30.1451 34.545L29.6209 34.8717C28.1042 35.8159 26.453 36.4996 24.7123 36.904L24.1111 37.044V39.8378C24.1111 40.1722 23.8389 40.4444 23.5044 40.4444H18.4956C18.1611 40.4444 17.8889 40.1722 17.8889 39.8378V37.044L17.2877 36.904C15.5478 36.4988 13.8966 35.8159 12.3791 34.8717L11.8549 34.545L9.88011 36.5198C9.64211 36.7578 9.25711 36.7562 9.02144 36.5198L5.48022 32.9786C5.243 32.7413 5.243 32.3563 5.48022 32.1199L7.455 30.1451L7.12833 29.6209C6.18411 28.1042 5.50044 26.453 5.096 24.7123L4.956 24.1111H2.16222C1.82778 24.1111 1.55556 23.8389 1.55556 23.5044V18.4956C1.55556 18.1611 1.82778 17.8889 2.16222 17.8889H4.956L5.096 17.2877C5.50122 15.547 6.18411 13.8958 7.12833 12.3791L7.455 11.8549L5.48022 9.88011C5.243 9.64289 5.243 9.25789 5.48022 9.02144L9.02144 5.48022C9.25789 5.24378 9.64289 5.24222 9.88011 5.48022L11.8549 7.455L12.3791 7.12833C13.8958 6.18411 15.547 5.50044 17.2877 5.096L17.8889 4.956V2.16222C17.8889 1.82778 18.1611 1.55556 18.4956 1.55556H23.5037C23.8389 1.55556 24.1111 1.82778 24.1111 2.16222V4.956L24.7123 5.096C26.4522 5.50122 28.1034 6.18411 29.6209 7.12833L30.1451 7.455L32.1199 5.48022C32.3579 5.24222 32.7429 5.24378 32.9786 5.48022L36.5198 9.02144C36.757 9.25867 36.757 9.64367 36.5198 9.88011L34.545 11.8549L34.8717 12.3791C35.8159 13.895 36.4996 15.5462 36.904 17.2877L37.044 17.8889H39.8378C40.1722 17.8889 40.4444 18.1611 40.4444 18.4956V23.5044Z" />
    <path d="M21 13.2222C16.7113 13.2222 13.2222 16.7113 13.2222 20.9999C13.2222 25.2886 16.7113 28.7777 21 28.7777C25.2887 28.7777 28.7778 25.2886 28.7778 20.9999C28.7778 16.7113 25.2887 13.2222 21 13.2222ZM21 27.2222C17.5692 27.2222 14.7778 24.4307 14.7778 20.9999C14.7778 17.5692 17.5692 14.7777 21 14.7777C24.4308 14.7777 27.2222 17.5692 27.2222 20.9999C27.2222 24.4307 24.4308 27.2222 21 27.2222Z" />
    </g>
    <defs>
    <clipPath id="clip0">
    <rect width="42" height="42" />
    </clipPath>
    </defs>
  </symbol>
  
  <symbol viewBox="0 0 42 42" id="wheel">
    <g clip-path="url(#clip0)">
    <path d="M21 10.1111C14.9956 10.1111 10.1111 14.9955 10.1111 21C10.1111 27.0044 14.9956 31.8889 21 31.8889C27.0044 31.8889 31.8889 27.0044 31.8889 21C31.8889 14.9955 27.0044 10.1111 21 10.1111ZM21 30.3333C15.8534 30.3333 11.6667 26.1465 11.6667 21C11.6667 15.8534 15.8534 11.6666 21 11.6666C26.1466 11.6666 30.3333 15.8534 30.3333 21C30.3333 26.1465 26.1466 30.3333 21 30.3333Z"/>
    <path d="M39.8378 16.3333H38.2682C37.8677 14.8462 37.2789 13.4229 36.5104 12.089L37.6196 10.9799C38.0279 10.5716 38.2527 10.0279 38.2527 9.45078C38.2527 8.87289 38.0279 8.33 37.6196 7.92089L34.0783 4.37967C33.2617 3.56378 31.8376 3.56222 31.0193 4.37967L29.9102 5.48878C28.5756 4.72111 27.153 4.13233 25.6667 3.73178V2.16222C25.6667 0.969889 24.6968 0 23.5044 0H18.4956C17.3032 0 16.3333 0.969889 16.3333 2.16222V3.73178C14.847 4.13233 13.4244 4.72111 12.089 5.48956L10.9799 4.38044C10.1624 3.56222 8.73755 3.56378 7.92089 4.38044L4.37967 7.92167C3.97133 8.33 3.74656 8.87367 3.74656 9.45156C3.74656 10.0287 3.97133 10.5716 4.37967 10.9807L5.48878 12.0898C4.72111 13.4229 4.13156 14.8462 3.73178 16.3333H2.16222C0.969889 16.3333 0 17.3032 0 18.4956V23.5037C0 24.6968 0.969889 25.6667 2.16222 25.6667H3.73178C4.13233 27.153 4.72111 28.5756 5.48956 29.911L4.38044 31.0201C3.97211 31.4284 3.74733 31.9721 3.74733 32.5492C3.74733 33.1271 3.97211 33.67 4.38044 34.0791L7.92167 37.6203C8.73833 38.4378 10.1632 38.4386 10.9807 37.6203L12.0898 36.5112C13.4252 37.2789 14.8478 37.8684 16.3341 38.269V39.8386C16.3341 41.0309 17.304 42.0008 18.4963 42.0008H23.5044C24.6968 42.0008 25.6667 41.0309 25.6667 39.8386V38.269C27.153 37.8684 28.5756 37.2797 29.911 36.5112L31.0201 37.6203C31.8383 38.4386 33.2617 38.437 34.0791 37.6203L37.6203 34.0791C38.0287 33.6708 38.2534 33.1271 38.2534 32.5492C38.2534 31.9721 38.0287 31.4292 37.6203 31.0201L36.5112 29.911C37.2789 28.5756 37.8684 27.153 38.269 25.6667H39.8386C41.0309 25.6667 42.0008 24.6968 42.0008 23.5044V18.4956C42 17.3032 41.0301 16.3333 39.8378 16.3333ZM40.4444 23.5044C40.4444 23.8389 40.1722 24.1111 39.8378 24.1111H37.044L36.904 24.7123C36.4988 26.4522 35.8159 28.1034 34.8717 29.6209L34.545 30.1451L36.5198 32.1199C36.757 32.3571 36.757 32.7421 36.5198 32.9786L32.9786 36.5198C32.7421 36.7562 32.3571 36.7578 32.1199 36.5198L30.1451 34.545L29.6209 34.8717C28.1042 35.8159 26.453 36.4996 24.7123 36.904L24.1111 37.044V39.8378C24.1111 40.1722 23.8389 40.4444 23.5044 40.4444H18.4956C18.1611 40.4444 17.8889 40.1722 17.8889 39.8378V37.044L17.2877 36.904C15.5478 36.4988 13.8966 35.8159 12.3791 34.8717L11.8549 34.545L9.88011 36.5198C9.64211 36.7578 9.25711 36.7562 9.02144 36.5198L5.48022 32.9786C5.243 32.7413 5.243 32.3563 5.48022 32.1199L7.455 30.1451L7.12833 29.6209C6.18411 28.1042 5.50044 26.453 5.096 24.7123L4.956 24.1111H2.16222C1.82778 24.1111 1.55556 23.8389 1.55556 23.5044V18.4956C1.55556 18.1611 1.82778 17.8889 2.16222 17.8889H4.956L5.096 17.2877C5.50122 15.547 6.18411 13.8958 7.12833 12.3791L7.455 11.8549L5.48022 9.88011C5.243 9.64289 5.243 9.25789 5.48022 9.02144L9.02144 5.48022C9.25789 5.24378 9.64289 5.24222 9.88011 5.48022L11.8549 7.455L12.3791 7.12833C13.8958 6.18411 15.547 5.50044 17.2877 5.096L17.8889 4.956V2.16222C17.8889 1.82778 18.1611 1.55556 18.4956 1.55556H23.5037C23.8389 1.55556 24.1111 1.82778 24.1111 2.16222V4.956L24.7123 5.096C26.4522 5.50122 28.1034 6.18411 29.6209 7.12833L30.1451 7.455L32.1199 5.48022C32.3579 5.24222 32.7429 5.24378 32.9786 5.48022L36.5198 9.02144C36.757 9.25867 36.757 9.64367 36.5198 9.88011L34.545 11.8549L34.8717 12.3791C35.8159 13.895 36.4996 15.5462 36.904 17.2877L37.044 17.8889H39.8378C40.1722 17.8889 40.4444 18.1611 40.4444 18.4956V23.5044Z"/>
    <path d="M21 13.2222C16.7113 13.2222 13.2222 16.7113 13.2222 20.9999C13.2222 25.2886 16.7113 28.7777 21 28.7777C25.2887 28.7777 28.7778 25.2886 28.7778 20.9999C28.7778 16.7113 25.2887 13.2222 21 13.2222ZM21 27.2222C17.5692 27.2222 14.7778 24.4307 14.7778 20.9999C14.7778 17.5692 17.5692 14.7777 21 14.7777C24.4308 14.7777 27.2222 17.5692 27.2222 20.9999C27.2222 24.4307 24.4308 27.2222 21 27.2222Z"/>
    </g>
    <defs>
    <clipPath id="clip0">
    <rect width="42" height="42" fill="white"/>
    </clipPath>
    </defs>
  </symbol>

  <symbol viewBox="0 0 15 29" id="arrow-next">
    <path d="M1 1L13.0858 13.0858C13.8668 13.8668 13.8668 15.1332 13.0858 15.9142L1 28" stroke-linecap="round"/>
  </symbol>

  <symbol viewBox="0 0 15 29" id="arrow-prev">
    <path d="M14 28L1.91422 15.9142C1.13317 15.1332 1.13317 13.8668 1.91421 13.0858L14 1" stroke-linecap="round"/>
  </symbol>

 <symbol viewBox="0 0 32 32" id="bt">
    <g clip-path="url(#clip0)">
    <path d="M22.2054 21.5212L17.1636 16L22.2054 10.4794C22.3637 10.3056 22.4445 10.0739 22.4276 9.83904C22.4107 9.60391 22.2984 9.38594 22.1163 9.23646L15.9874 4.19594C15.7305 3.98458 15.3753 3.94019 15.0746 4.08255C14.7739 4.2243 14.5823 4.52674 14.5823 4.85927V13.1736L11.0639 9.32046C10.7443 8.97021 10.2004 8.94555 9.85017 9.26548C9.49992 9.5854 9.47526 10.1287 9.79518 10.4792L14.5823 15.7217V16.2784L9.79523 21.5212C9.47503 21.8712 9.49968 22.4148 9.85022 22.7349C10.2007 23.0551 10.7441 23.0305 11.064 22.6797L14.5821 18.827V27.1408C14.5821 27.473 14.774 27.7758 15.0744 27.9178C15.1913 27.9728 15.3167 28.0001 15.4413 28.0001C15.6369 28.0001 15.8305 27.9336 15.9874 27.8047L22.1163 22.7641C22.2984 22.6144 22.4107 22.3964 22.4276 22.1615C22.4445 21.9267 22.3643 21.695 22.2054 21.5212ZM16.3007 6.6784L20.326 9.98857L16.3007 14.3968V6.6784ZM16.3007 25.3217V17.6036L20.326 22.0115L16.3007 25.3217Z"/>
    </g>
    <defs>
    <clipPath id="clip0">
    <rect width="24" height="24" fill="white" transform="translate(4 4)"/>
    </clipPath>
    </defs>
  </symbol>


<symbol viewBox="0 0 32 32" id="charger">
  <g clip-path="url(#clip0)">
  <path d="M26.08 11.2274V9.1261C26.08 8.73627 25.7639 8.42022 25.3741 8.42022H22.096C21.7062 8.42022 21.3901 8.73627 21.3901 9.1261V11.2274C21.0301 11.2596 20.7478 11.5617 20.7478 11.9301V15.7258C20.7478 16.5907 21.4515 17.2943 22.3164 17.2943H23.0292V24.8141C23.0292 25.7924 22.2331 26.5882 21.2546 26.5882H13.5383C12.5601 26.5882 11.7642 25.7924 11.7642 24.8141V23.2941H13.2654C13.6552 23.2941 13.9713 22.9781 13.9713 22.5882V20.298H14.7211C15.8887 20.298 16.8387 19.348 16.8387 18.1804V11.7782C16.8387 10.8261 16.207 10.0189 15.3407 9.75326V7.33269C15.3407 6.94286 15.0247 6.62681 14.6348 6.62681H13.6471V4.70587C13.6471 4.31603 13.331 3.99998 12.9412 3.99998C12.5513 3.99998 12.2353 4.31603 12.2353 4.70587V6.62681H9.88141V4.70587C9.88141 4.31603 9.56536 3.99998 9.17552 3.99998C8.78569 3.99998 8.46964 4.31603 8.46964 4.70587V6.62681H7.48188C7.09204 6.62681 6.77599 6.94286 6.77599 7.33269V9.75326C5.90969 10.0189 5.27797 10.826 5.27797 11.7782V18.1804C5.27797 19.348 6.22795 20.298 7.39562 20.298H8.1454V22.5882C8.1454 22.9781 8.46145 23.2941 8.85129 23.2941H10.3525V24.8141C10.3525 26.5708 11.7816 28 13.5383 28H21.2546C23.0115 28 24.4409 26.5708 24.4409 24.8141V17.2943H25.1535C26.0184 17.2943 26.7221 16.5907 26.7221 15.7258V11.9301C26.7221 11.5618 26.4399 11.2597 26.08 11.2274ZM13.9289 8.03857V9.66055H8.18776V8.03857H13.9289ZM6.68969 18.1804V11.7782C6.68969 11.389 7.00635 11.0723 7.39557 11.0723H14.7211C15.1103 11.0723 15.427 11.389 15.427 11.7782V18.1804C15.427 18.5696 15.1103 18.8862 14.7211 18.8862C14.4253 18.8862 7.73246 18.8862 7.39557 18.8862C7.00635 18.8862 6.68969 18.5696 6.68969 18.1804ZM9.55717 20.298H12.5595V21.8823H9.55717V20.298ZM24.6682 9.83198V11.2242H22.8019V9.83198H24.6682ZM25.3103 15.7258C25.3103 15.8122 25.2399 15.8825 25.1535 15.8825C25.0671 15.8825 23.1153 15.8825 22.3164 15.8825C22.2299 15.8825 22.1596 15.8122 22.1596 15.7258V12.636H25.3103V15.7258Z"/>
  <path d="M10.1638 15.6852H10.8799L10.5678 16.409C10.4134 16.767 10.5785 17.1823 10.9364 17.3367C11.295 17.4911 11.7099 17.3256 11.8641 16.968L12.6011 15.2588C12.802 14.7928 12.4593 14.2735 11.9529 14.2735H11.2368L11.5489 13.5497C11.7033 13.1917 11.5382 12.7763 11.1802 12.622C10.8222 12.4677 10.4069 12.6328 10.2526 12.9907L9.51558 14.6998C9.31464 15.1657 9.65741 15.6852 10.1638 15.6852Z"/>
  </g>
  <defs>
  <clipPath id="clip0">
  <rect width="24" height="24" fill="white" transform="translate(4 4)"/>
  </clipPath>
  </defs>
</symbol>

<symbol viewBox="0 0 32 32" id="distance">
  <path d="M9.25 8.5C6.355 8.5 4 10.855 4 13.75C4 16.444 8.212 21.2155 8.692 21.751C8.8345 21.9085 9.037 22 9.25 22C9.463 22 9.6655 21.9085 9.808 21.751C10.288 21.2155 14.5 16.444 14.5 13.75C14.5 10.855 12.145 8.5 9.25 8.5ZM9.25 20.1055C7.612 18.163 5.5 15.181 5.5 13.75C5.5 11.683 7.183 10 9.25 10C11.317 10 13 11.683 13 13.75C13 15.1795 10.888 18.163 9.25 20.1055Z" />
  <path d="M9.25 11.5C8.0095 11.5 7 12.5095 7 13.75C7 14.9905 8.0095 16 9.25 16C10.4905 16 11.5 14.9905 11.5 13.75C11.5 12.5095 10.4905 11.5 9.25 11.5ZM9.25 14.5C8.836 14.5 8.5 14.164 8.5 13.75C8.5 13.336 8.836 13 9.25 13C9.664 13 10 13.336 10 13.75C10 14.164 9.664 14.5 9.25 14.5Z"/>
  <path d="M27.25 4H21.25C20.836 4 20.5 4.336 20.5 4.75V9.25V12.25C20.5 12.664 20.836 13 21.25 13C21.664 13 22 12.664 22 12.25V10H27.25C27.664 10 28 9.664 28 9.25V4.75C28 4.336 27.664 4 27.25 4ZM26.5 8.5H22V5.5H26.5V8.5Z"/>
  <path d="M25 20.5H17.5C16.6735 20.5 16 19.8265 16 19C16 18.1735 16.6735 17.5 17.5 17.5H19.138C19.4485 18.3715 20.2735 19 21.25 19C22.4905 19 23.5 17.9905 23.5 16.75C23.5 15.5095 22.4905 14.5 21.25 14.5C20.2735 14.5 19.4485 15.1285 19.138 16H17.5C15.8455 16 14.5 17.3455 14.5 19C14.5 20.6545 15.8455 22 17.5 22H25C25.8265 22 26.5 22.6735 26.5 23.5C26.5 24.3265 25.8265 25 25 25H11.362C11.0515 24.1285 10.2265 23.5 9.25 23.5C8.0095 23.5 7 24.5095 7 25.75C7 26.9905 8.0095 28 9.25 28C10.2265 28 11.0515 27.3715 11.362 26.5H25C26.6545 26.5 28 25.1545 28 23.5C28 21.8455 26.6545 20.5 25 20.5ZM21.25 16C21.664 16 22 16.336 22 16.75C22 17.164 21.664 17.5 21.25 17.5C20.836 17.5 20.5 17.164 20.5 16.75C20.5 16.336 20.836 16 21.25 16ZM9.25 26.5C8.836 26.5 8.5 26.164 8.5 25.75C8.5 25.336 8.836 25 9.25 25C9.664 25 10 25.336 10 25.75C10 26.164 9.664 26.5 9.25 26.5Z"/>
</symbol>


<symbol viewBox="0 0 32 32" id="sert">
  <path d="M28 5.78125H4V23.2266H18.7643V26.2543L21.3884 24.9725L24.0125 26.2543V23.2266H28V5.78125ZM21.3884 20.413C20.0701 20.413 18.9978 19.3406 18.9978 18.0224C18.9978 16.7042 20.0701 15.6318 21.3884 15.6318C22.7066 15.6318 23.7791 16.7042 23.7791 18.0224C23.7791 19.3406 22.7066 20.413 21.3884 20.413ZM21.3884 23.4075L20.1706 24.0023V21.6177C20.5531 21.7477 20.9623 21.8193 21.3884 21.8193C21.8143 21.8193 22.2236 21.7477 22.6063 21.6177V24.0023L21.3884 23.4075ZM26.5938 21.8204H24.0125V20.7626C24.7343 20.071 25.1853 19.0987 25.1853 18.0224C25.1853 15.9288 23.4821 14.2255 21.3884 14.2255C19.2948 14.2255 17.5916 15.9288 17.5916 18.0224C17.5916 19.0987 18.0424 20.0712 18.7643 20.7626V21.8204H5.40625V7.1875H26.5938V21.8204Z"/>
  <path d="M6.81415 11.4106H25.1859V12.8169H6.81415V11.4106Z"/>
  <path d="M8.92517 8.59595H23.0748V10.0022H8.92517V8.59595Z"/>
  <path d="M6.81415 19.0057H13.6544V20.4119H6.81415V19.0057Z"/>
  <path d="M6.81415 16.1908H13.6544V17.597H6.81415V16.1908Z"/>
</symbol>

  <symbol viewBox="0 0 32 32" id="weight">
    <path d="M24.3373 10.3997H18.9742C19.5392 9.7226 19.88 8.85193 19.88 7.90308C19.88 5.75085 18.1292 4 15.9771 4C13.8249 4 12.074 5.75085 12.074 7.90308C12.074 8.85193 12.4148 9.7226 12.9799 10.3997H7.6167L4.28125 28H27.6728L24.3373 10.3997ZM15.9771 5.40625C17.3537 5.40625 18.4738 6.52631 18.4738 7.90308C18.4738 9.27966 17.3537 10.3997 15.9771 10.3997C14.6003 10.3997 13.4803 9.27966 13.4803 7.90308C13.4803 6.52631 14.6003 5.40625 15.9771 5.40625ZM8.78143 11.806H23.1726L25.975 26.5938H5.979L8.78143 11.806Z"/>
    <path d="M16.0055 16.4026H14.4094L12.1779 18.631V16.4026H11.0309V22.0225H12.1779V20.1017L12.7563 19.5378L14.5044 22.0225H15.985L13.5753 18.7497L16.0055 16.4026Z"/>
    <path d="M18.2747 20.0007H19.7903V20.617C19.6685 20.7058 19.5026 20.793 19.2955 20.8766C19.0436 20.9786 18.7817 21.0303 18.5177 21.0303C18.2154 21.0303 17.9261 20.9627 17.6575 20.8294C17.3986 20.701 17.2063 20.5092 17.0701 20.2426C16.9294 19.9677 16.8582 19.6152 16.8582 19.195C16.8582 18.8546 16.9186 18.5355 17.0371 18.2474C17.1041 18.0872 17.1995 17.938 17.3207 17.8034C17.4363 17.6752 17.5936 17.569 17.7878 17.4879C17.9858 17.4053 18.2277 17.3634 18.5071 17.3634C18.7347 17.3634 18.9432 17.4028 19.1269 17.4804C19.3016 17.5542 19.4356 17.6511 19.5251 17.7681C19.6222 17.8948 19.7062 18.0775 19.7751 18.3113L19.8395 18.5302L20.8955 18.2405L20.8386 18.0191C20.7417 17.6419 20.5959 17.329 20.4052 17.0886C20.2094 16.8419 19.939 16.6482 19.601 16.5127C19.2736 16.3814 18.9044 16.3149 18.5036 16.3149C17.9539 16.3149 17.4592 16.4307 17.0331 16.6588C16.5969 16.8925 16.2585 17.2534 16.028 17.7314C15.8037 18.1962 15.6902 18.7026 15.6902 19.2373C15.6902 19.7786 15.8052 20.277 16.0324 20.7184C16.2648 21.1703 16.6132 21.5203 17.0684 21.7587C17.5139 21.9921 18.0145 22.1106 18.5563 22.1106C18.9579 22.1106 19.3547 22.0375 19.7357 21.8932C20.1131 21.7506 20.4832 21.5356 20.8356 21.2546L20.9233 21.1848V18.9271L18.2747 18.9313V20.0007Z"/>
  </symbol>

  <symbol viewBox="0 0 24 24" id="cross">
    <path d="M16.2667 12L23.2 5.06667C24.2667 4 24.2667 2.4 23.2 1.46667L22.6667 0.933333C21.6 -0.133333 20 -0.133333 19.0667 0.933333L12 7.73333L5.06667 0.8C4 -0.266667 2.4 -0.266667 1.33333 0.8L0.8 1.33333C-0.266667 2.4 -0.266667 4 0.8 4.93333L7.73333 12L0.8 18.9333C-0.266667 20 -0.266667 21.6 0.8 22.5333L1.33333 23.2C2.4 24.2667 4 24.2667 4.93333 23.2L12 16.2667L18.9333 23.2C20 24.2667 21.6 24.2667 22.5333 23.2L23.0667 22.6667C24.1333 21.6 24.1333 20 23.0667 19.0667L16.2667 12Z"/>
  </symbol>

  <symbol id="play" viewBox="0 0 49 71" fill="none" xmlns="http://www.w3.org/2000/svg">
  <path d="M46.8774 39.7693L9.257 69.7417C5.66032 72.5942 0.368652 70.0311 0.368652 65.4422V5.49749C0.368652 0.908623 5.66032 -1.65453 9.257 1.19801L46.8774 31.1704C49.606 33.3614 49.606 37.5782 46.8774 39.7693Z" />
  </symbol>




</svg>

